<?xml version="1.0" encoding="UTF-8"?>
<svg version="1.1" xmlns="http://www.w3.org/2000/svg" width="695" height="359">
<path d="M0 0 C2.88817391 2.22632719 3.90160932 3.386553 4.48660469 7.03388691 C4.48031988 8.2305004 4.47403507 9.4271139 4.46755981 10.6599884 C4.47056967 11.66226039 4.47056967 11.66226039 4.47364032 12.6847803 C4.47554499 14.92289772 4.4488682 17.15975729 4.42236328 19.39770508 C4.41796047 21.00267662 4.41534981 22.60765393 4.41439819 24.21263123 C4.40853049 27.66894882 4.39003331 31.12488818 4.3617897 34.58109474 C4.31725612 40.04833659 4.30107663 45.51543801 4.28878784 50.98283386 C4.26601848 59.63367333 4.22456648 68.28430501 4.17499244 76.93502873 C4.08641011 92.41748589 4.01990955 107.90001376 3.97450435 123.38265723 C3.95771079 128.81502183 3.92968096 134.24717871 3.89255929 139.67944109 C3.87122652 143.06347323 3.85808878 146.44750348 3.84695816 149.83158302 C3.84003494 151.39768437 3.82962627 152.96377489 3.81542206 154.52982712 C3.79641672 156.67298043 3.78995396 158.8158339 3.78640747 160.95906067 C3.77584918 162.75567752 3.77584918 162.75567752 3.76507759 164.58858967 C4.02018733 168.29314892 4.89936865 171.46304174 6 175 C7.09915767 185.0066172 5.31709868 193.39537095 -0.875 201.375 C-9.02679844 211.18912597 -20.08041402 216.97432043 -32.7578125 218.28515625 C-43.98936913 218.65314172 -53.62848124 215.61694309 -62 208 C-69.24167807 199.64524919 -71.46769254 192.17770346 -71.2421875 181.203125 C-70.43035363 170.46596731 -64.45084546 160.95322391 -56.75 153.625 C-50.07880941 148.0523245 -41.62606949 143.88123463 -32.8125 143.8671875 C-32.03132812 143.86589844 -31.25015625 143.86460937 -30.4453125 143.86328125 C-29.63835937 143.86714844 -28.83140625 143.87101563 -28 143.875 C-27.19304687 143.87113281 -26.38609375 143.86726562 -25.5546875 143.86328125 C-24.77351562 143.86457031 -23.99234375 143.86585938 -23.1875 143.8671875 C-22.12595703 143.86887939 -22.12595703 143.86887939 -21.04296875 143.87060547 C-18.92287267 144.00488498 -17.04042437 144.42283502 -15 145 C-15.0714624 143.98446045 -15.1429248 142.9689209 -15.21655273 141.92260742 C-16.17142168 127.06691215 -16.11872401 112.22595406 -16.06866455 97.34521484 C-16.05825211 93.91179028 -16.05382941 90.47835782 -16.04882812 87.04492188 C-16.03792685 80.36326143 -16.02128847 73.68163502 -16 67 C-42.31065259 74.61795988 -68.29396056 82.96380776 -92.93041992 95.03613281 C-95.92256548 96.42966716 -98.96284918 97.70858645 -102 99 C-103.24886866 99.53475766 -104.49756709 100.06991307 -105.74609375 100.60546875 C-107.61914062 101.40820312 -109.4921875 102.2109375 -111.36523438 103.01367188 C-111.96529297 103.27083984 -112.56535156 103.52800781 -113.18359375 103.79296875 C-114.11300781 104.19128906 -115.04242187 104.58960938 -116 105 C-113.19319482 131.31305992 -109.91820354 157.51924314 -106.07096863 183.70100403 C-104.7702668 192.56983549 -103.49381653 201.44180096 -102.2890625 210.32421875 C-102.15897797 211.24797806 -102.02889343 212.17173737 -101.89486694 213.12348938 C-101.19118915 218.40966817 -100.91350809 223.46539422 -101.1499939 228.79719543 C-100.97828919 231.31884406 -100.168868 232.78375817 -99 235 C-97.99812496 244.55472411 -98.19569517 252.94113048 -104 261 C-106.375 263.6875 -106.375 263.6875 -109 266 C-109.47824219 266.52980469 -109.95648437 267.05960937 -110.44921875 267.60546875 C-119.9693529 278.04764979 -133.38605847 283.90423133 -147.36425781 284.57275391 C-158.08225125 284.78520765 -166.05107899 283.17083366 -174.359375 275.94921875 C-180.16856916 269.9810138 -184.01964616 262.98370328 -184.5 254.5625 C-183.96573684 245.36669777 -180.15659207 237.92568452 -173.8203125 231.359375 C-159.55878116 219.42867565 -141.17770111 215.73917206 -123 216 C-123.11069824 215.16154541 -123.22139648 214.32309082 -123.33544922 213.45922852 C-127.03735996 185.21337994 -129.21278029 157.05267864 -130.61590576 128.60494995 C-130.91069252 122.66621 -131.2353932 116.72956507 -131.5703125 110.79296875 C-132.42401128 95.47035336 -133.19256779 80.15255749 -133.29754639 64.8036499 C-133.30742144 63.40618905 -133.3218586 62.00875209 -133.34112549 60.61138916 C-133.36452878 58.70329492 -133.36453387 56.7949561 -133.36328125 54.88671875 C-133.36626221 53.81639404 -133.36924316 52.74606934 -133.37231445 51.64331055 C-133 49 -133 49 -131.70703125 47.12939453 C-129.25116566 45.50456126 -127.03118693 46.01666521 -124.18505859 46.12255859 C-120.30640958 45.90500755 -117.20533486 44.08466444 -113.8125 42.3125 C-112.32081494 41.57057951 -110.82730209 40.83232315 -109.33203125 40.09765625 C-108.60064941 39.73687988 -107.86926758 39.37610352 -107.11572266 39.00439453 C-103.12284851 37.10886208 -98.98371269 35.61523986 -94.84375 34.078125 C-92.34721371 33.13163597 -89.92774454 32.10831816 -87.5 31 C-80.33092304 27.75191639 -72.93099233 25.06321634 -65.5390625 22.37109375 C-56.90127969 19.22344223 -48.3417135 15.96863548 -39.86132812 12.41674805 C-35.1826992 10.46307743 -30.46575781 8.70746743 -25.67578125 7.04296875 C-22.49041386 5.80137299 -19.49554904 4.27724451 -16.4375 2.75 C-11.09088754 0.24218416 -5.88891126 -1.67015163 0 0 Z M-22.52734375 21.609375 C-23.39528564 21.94984863 -24.26322754 22.29032227 -25.1574707 22.64111328 C-26.07488037 23.0070459 -26.99229004 23.37297852 -27.9375 23.75 C-34.84309703 26.44827959 -41.71217793 28.9261995 -48.83203125 31.0078125 C-53.31325351 32.41130258 -57.67014481 34.10656564 -62.05322266 35.78735352 C-67.25072149 37.76315361 -72.50435166 39.41513964 -77.8359375 40.99609375 C-82.25623505 42.39858322 -86.53702353 44.10688925 -90.83203125 45.8515625 C-93.80655487 46.92987316 -96.768551 47.71114636 -99.84301758 48.44628906 C-103.7702238 49.45442757 -107.59657502 50.76960879 -111.4375 52.0625 C-112.25154297 52.33126953 -113.06558594 52.60003906 -113.90429688 52.87695312 C-117.74815089 53.90826817 -117.74815089 53.90826817 -121 56 C-120.95804802 57.9449089 -120.84187129 59.88829224 -120.6953125 61.828125 C-120.60636719 63.02050781 -120.51742187 64.21289062 -120.42578125 65.44140625 C-120.32652344 66.69824219 -120.22726562 67.95507812 -120.125 69.25 C-120.03347656 70.49136719 -119.94195313 71.73273438 -119.84765625 73.01171875 C-119.27924081 80.55439875 -119.27924081 80.55439875 -118 88 C-108.99267007 83.65213408 -108.99267007 83.65213408 -100.25 78.8125 C-96.79853722 76.88764576 -93.33187628 75.48060858 -89.65234375 74.05859375 C-86.99308224 72.99723901 -84.40844034 71.83232441 -81.8125 70.625 C-71.64393451 65.95605303 -61.22487924 62.02784702 -50.66015625 58.359375 C-48.00745553 57.37416705 -45.4533012 56.34598091 -42.87109375 55.203125 C-33.4044114 51.03162232 -25.34357201 48.90380726 -15 48 C-14.67 38.76 -14.34 29.52 -14 20 C-17.67192268 20 -19.25051658 20.30177367 -22.52734375 21.609375 Z " fill="#05BEFD" transform="translate(652,37)"/>
<path d="M0 0 C6.3297002 5.23313121 9.84676563 10.48855214 13.02734375 18.0078125 C13.30924561 18.66958496 13.59114746 19.33135742 13.8815918 20.01318359 C18.49841561 31.67311067 19.76788419 43.43012017 19.65234375 55.8828125 C19.66394531 57.13320312 19.67554688 58.38359375 19.6875 59.671875 C19.64955674 71.88960597 17.30649091 83.23522283 12.96484375 94.6328125 C12.66070557 95.44210205 12.35656738 96.2513916 12.04321289 97.08520508 C9.71427411 103.11158429 7.00054593 108.58402341 3.27734375 113.8828125 C2.83003906 114.5840625 2.38273437 115.2853125 1.921875 116.0078125 C-1.96371524 121.75456781 -6.89410288 125.22950871 -12.72265625 128.8828125 C-13.35558594 129.29660156 -13.98851562 129.71039063 -14.640625 130.13671875 C-24.78176383 136.4256172 -38.08208216 136.27344439 -49.5 134.1953125 C-55.99164034 132.37735021 -62.00968824 129.86631342 -66.72265625 124.8828125 C-66.72265625 124.2228125 -66.72265625 123.5628125 -66.72265625 122.8828125 C-67.32335937 122.62113281 -67.9240625 122.35945312 -68.54296875 122.08984375 C-77.49407781 117.1330468 -81.85073713 103.39531202 -84.53515625 94.1953125 C-91.22904463 69.40764098 -88.55655577 36.81436739 -75.84765625 14.3828125 C-74.83943084 12.86013362 -73.79772079 11.35905966 -72.72265625 9.8828125 C-71.89894531 8.71685547 -71.89894531 8.71685547 -71.05859375 7.52734375 C-54.94636894 -12.93860989 -19.99573322 -15.09946363 0 0 Z M-43.72265625 23.8828125 C-54.26389235 40.34360161 -56.71458559 60.63749503 -54.2265625 79.6796875 C-52.54193448 87.02733059 -49.58052886 94.84683528 -43.72265625 99.8828125 C-39.07483612 101.43208588 -35.24450462 101.40024095 -30.59765625 99.8203125 C-22.85021144 94.59920839 -20.99236 86.75800789 -19.10284424 78.04492188 C-18.08386281 72.25002732 -18.13485772 66.3779708 -18.20117188 60.51171875 C-18.22271621 58.25152241 -18.20118666 55.99447913 -18.17578125 53.734375 C-18.15160394 41.1915624 -20.31521729 30.29326725 -27.72265625 19.8828125 C-29.27248886 18.33297989 -30.75934003 18.60148289 -32.91015625 18.5078125 C-37.78843612 18.60058486 -40.72223001 20.01129477 -43.72265625 23.8828125 Z " fill="#353535" transform="translate(208.72265625,151.1171875)"/>
<path d="M0 0 C11.76067005 8.93886677 16.8667546 21.12229271 19.875 35.125 C20.11863281 36.21425781 20.36226563 37.30351562 20.61328125 38.42578125 C25.61664171 65.21247974 20.08815964 94.51962779 4.875 117.125 C0.28547218 123.61676633 -5.45255259 127.88767407 -12.125 132.125 C-12.88554687 132.64449219 -13.64609375 133.16398438 -14.4296875 133.69921875 C-20.8462938 137.09351049 -27.38822686 137.48765355 -34.5 137.4375 C-35.33708496 137.43186035 -36.17416992 137.4262207 -37.03662109 137.42041016 C-47.58613116 137.21315466 -54.69658652 134.4340832 -63.125 128.125 C-64.135625 127.444375 -65.14625 126.76375 -66.1875 126.0625 C-74.61046715 118.86298059 -79.91660533 106.2437775 -82.25 95.6875 C-82.41886719 94.96240234 -82.58773437 94.23730469 -82.76171875 93.49023438 C-86.80456544 75.77492585 -86.55636739 56.7553573 -82.125 39.125 C-81.95339355 38.43438477 -81.78178711 37.74376953 -81.60498047 37.03222656 C-79.21942031 27.78418371 -75.92164681 19.82033156 -70.125 12.125 C-69.34189453 11.03445312 -69.34189453 11.03445312 -68.54296875 9.921875 C-53.11278057 -9.75067635 -20.47664673 -12.50119854 0 0 Z M-42.30566406 26.7277832 C-43.40947391 28.61581144 -44.37918891 30.52213468 -45.3125 32.5 C-45.82393555 33.57217773 -45.82393555 33.57217773 -46.34570312 34.66601562 C-53.81144592 50.94046848 -54.9262161 71.83331543 -50.125 89.125 C-48.15334147 93.98709356 -45.74197575 98.27467098 -42.125 102.125 C-37.46247142 103.67917619 -33.63746673 103.66948802 -29 102 C-21.57631304 97.15846503 -19.49038029 91.00792745 -17.56811523 82.72558594 C-16.08632881 75.29890363 -15.8241844 68.12131986 -15.875 60.5625 C-15.86726563 59.40814453 -15.85953125 58.25378906 -15.8515625 57.06445312 C-15.87316972 47.54107048 -17.10242861 39.11424013 -20.5 30.1875 C-20.89960938 29.10597656 -21.29921875 28.02445313 -21.7109375 26.91015625 C-23.2123246 23.9530043 -24.24522039 22.71645715 -27.125 21.125 C-33.52482345 20.40243929 -38.16022291 21.1002354 -42.30566406 26.7277832 Z " fill="#353535" transform="translate(318.125,148.875)"/>
<path d="M0 0 C6.12118407 3.45816894 11.43050131 6.65478517 13.75 13.61328125 C14.50512096 22.67473271 10.61997751 27.53650505 5.328125 34.4453125 C0.74507409 40.74133541 -2.87888707 47.61173901 -6.25 54.61328125 C-2.48571015 59.23798021 1.486779 63.43259614 5.78515625 67.57421875 C23.67565522 85.06578721 23.67565522 85.06578721 24.1875 97.67578125 C24.04073706 102.78696003 23.37627522 105.79614944 19.75 109.61328125 C15.69343657 113.18692046 11.75204115 114.66282909 6.42578125 115.05078125 C1.15034554 114.18822826 -2.69984297 110.42880356 -6.25 106.61328125 C-6.58 105.62328125 -6.91 104.63328125 -7.25 103.61328125 C-13.57537028 100.09751724 -21.19545915 99.95944315 -28.25 99.61328125 C-28.25 98.95328125 -28.25 98.29328125 -28.25 97.61328125 C-24.29 95.96328125 -20.33 94.31328125 -16.25 92.61328125 C-17.8896875 90.69515625 -17.8896875 90.69515625 -19.5625 88.73828125 C-20.17738281 88.01898438 -20.79226563 87.2996875 -21.42578125 86.55859375 C-23.2912324 84.42148794 -23.2912324 84.42148794 -26.25 82.61328125 C-26.73210937 83.19078125 -27.21421875 83.76828125 -27.7109375 84.36328125 C-28.34257812 85.10578125 -28.97421875 85.84828125 -29.625 86.61328125 C-30.25148438 87.35578125 -30.87796875 88.09828125 -31.5234375 88.86328125 C-32.09320313 89.44078125 -32.66296875 90.01828125 -33.25 90.61328125 C-33.91 90.61328125 -34.57 90.61328125 -35.25 90.61328125 C-35.476875 91.17015625 -35.70375 91.72703125 -35.9375 92.30078125 C-37.62550036 95.27487713 -39.71676517 97.3333699 -42.25 99.61328125 C-42.91 99.61328125 -43.57 99.61328125 -44.25 99.61328125 C-44.48074219 100.20753906 -44.71148437 100.80179687 -44.94921875 101.4140625 C-46.59043237 104.18884709 -48.28992331 105.18379125 -51.0625 106.80078125 C-51.91457031 107.30996094 -52.76664062 107.81914062 -53.64453125 108.34375 C-59.25791876 111.07890883 -66.18505124 111.69514628 -72.24609375 110.08203125 C-76.87420841 108.25069126 -80.21424172 105.94676003 -82.25390625 101.3515625 C-83.29722382 98.48346204 -84.12140307 95.63307831 -84.875 92.67578125 C-85.13539063 91.67675781 -85.39578125 90.67773438 -85.6640625 89.6484375 C-86.27186396 86.50002592 -86.56807963 83.80770956 -86.25 80.61328125 C-84.765 79.62328125 -84.765 79.62328125 -83.25 78.61328125 C-82.79109375 78.98582031 -82.3321875 79.35835938 -81.859375 79.7421875 C-80.93898438 80.45181641 -80.93898438 80.45181641 -80 81.17578125 C-79.09507812 81.88927734 -79.09507812 81.88927734 -78.171875 82.6171875 C-76.30797369 83.80265329 -76.30797369 83.80265329 -74.22265625 83.42578125 C-62.80079444 78.72133124 -55.01780874 64.30881409 -48.25 54.61328125 C-50.35072646 50.03918975 -53.44420525 46.73918849 -56.8125 43.05078125 C-57.39580078 42.37853516 -57.97910156 41.70628906 -58.58007812 41.01367188 C-62.89953508 36.290878 -66.89047277 33.73625584 -73.25 32.61328125 C-76.08035772 32.57668763 -76.08035772 32.57668763 -78.5 33.30078125 C-79.32757813 33.50832031 -80.15515625 33.71585938 -81.0078125 33.9296875 C-83.49237304 34.68717547 -85.89445317 35.51402606 -88.25 36.61328125 C-90.79213005 31.1053328 -90.20997013 27.14621128 -88.25 21.61328125 C-85.42987028 15.29347247 -81.52589943 11.52040763 -75.25 8.61328125 C-66.58419307 5.92032133 -58.20453566 7.64659126 -50.25 11.61328125 C-43.25857168 15.87772885 -36.74713479 20.48790249 -31.25 26.61328125 C-26.8093229 20.52790892 -22.36777812 13.24211449 -21.6875 5.61328125 C-21.25 2.61328125 -21.25 2.61328125 -19.375 0.73828125 C-13.18194553 -2.54039465 -6.41637799 -2.73775744 0 0 Z " fill="#353535" transform="translate(435.25,174.38671875)"/>
<path d="M0 0 C1.45019531 0.69609375 1.45019531 0.69609375 2.9296875 1.40625 C3.65414062 1.7671875 4.37859375 2.128125 5.125 2.5 C5.125 3.16 5.125 3.82 5.125 4.5 C5.723125 4.7475 6.32125 4.995 6.9375 5.25 C9.50637422 6.71792813 10.55972448 7.99819728 12.125 10.5 C13.77194802 18.88311382 11.31344064 28.11812601 9.72436523 36.34692383 C5.64052205 57.85164674 5.5437835 79.48198936 5.07287598 101.28875732 C4.9708599 105.99968862 4.86141285 110.71032143 4.74124146 115.42082596 C4.68842931 117.60991708 4.646662 119.79904137 4.60522461 121.9883728 C4.57203236 123.32478261 4.53828989 124.66117891 4.50390625 125.99755859 C4.46632202 127.74146378 4.46632202 127.74146378 4.42797852 129.52059937 C4.03127617 133.42165232 3.20111872 135.56676841 0.2421875 138.1328125 C-5.66680683 142.06527911 -10.7887943 145.20722791 -18.125 143.9375 C-23.56034437 141.09629726 -26.01484086 136.17713009 -27.875 130.5 C-28.26318359 126.87792969 -28.26318359 126.87792969 -28.2734375 122.921875 C-28.27739532 122.18120285 -28.28135315 121.4405307 -28.28543091 120.67741394 C-28.29123938 118.20124456 -28.2719249 115.72606975 -28.25 113.25 C-28.24734131 112.39181671 -28.24468262 111.53363342 -28.24194336 110.64944458 C-28.14690242 83.91339165 -26.42238304 57.18344305 -24.875 30.5 C-26.02097656 30.80035156 -27.16695312 31.10070312 -28.34765625 31.41015625 C-29.87743424 31.79494703 -31.40739195 32.17902379 -32.9375 32.5625 C-33.68966797 32.76166016 -34.44183594 32.96082031 -35.21679688 33.16601562 C-40.08843307 34.36810767 -43.88594043 34.66200881 -48.875 33.5 C-52.63562401 30.95903783 -53.65854569 28.02764175 -54.55859375 23.6328125 C-55.591215 16.67218034 -55.10784888 9.85344606 -51.875 3.5 C-49.2659981 1.14465106 -46.49428665 -0.5 -42.875 -0.5 C-42.875 0.16 -42.875 0.82 -42.875 1.5 C-35.34061737 1.86068853 -28.83769974 1.2441719 -21.56640625 -0.765625 C-13.88822121 -2.86068855 -7.24026316 -3.53183569 0 0 Z " fill="#363636" transform="translate(99.875,144.5)"/>
<path d="M0 0 C0.99 0.495 0.99 0.495 2 1 C1.67 1.66 1.34 2.32 1 3 C-2.63 2.67 -6.26 2.34 -10 2 C-10 2.66 -10 3.32 -10 4 C-10.99 4 -11.98 4 -13 4 C-13 4.66 -13 5.32 -13 6 C-15.31 6.33 -17.62 6.66 -20 7 C-20.33 7.99 -20.66 8.98 -21 10 C-21.71027344 10.12117188 -22.42054688 10.24234375 -23.15234375 10.3671875 C-24.53099609 10.61855469 -24.53099609 10.61855469 -25.9375 10.875 C-26.85402344 11.03742187 -27.77054688 11.19984375 -28.71484375 11.3671875 C-29.46894531 11.57601562 -30.22304688 11.78484375 -31 12 C-31.33 12.66 -31.66 13.32 -32 14 C-33.65 14 -35.3 14 -37 14 C-37 15.32 -37 16.64 -37 18 C-34.03 17.67 -31.06 17.34 -28 17 C-28.495 19.475 -28.495 19.475 -29 22 C-28.484375 21.67 -27.96875 21.34 -27.4375 21 C-24.21973488 19.67989123 -21.4429472 19.86757895 -18 20 C-20.36652299 21.57768199 -22.1830712 22.56927125 -24.7734375 23.5859375 C-25.50900879 23.87476807 -26.24458008 24.16359863 -27.00244141 24.46118164 C-27.78538574 24.7627417 -28.56833008 25.06430176 -29.375 25.375 C-30.18501465 25.68880615 -30.9950293 26.0026123 -31.82958984 26.32592773 C-37.39920198 28.45600402 -43.00397076 30.29335666 -48.7265625 31.97265625 C-52.54577359 33.17128694 -56.26386035 34.5669359 -60 36 C-65.88318392 38.2561419 -71.79211736 40.20394361 -77.8359375 41.99609375 C-82.25623505 43.39858322 -86.53702353 45.10688925 -90.83203125 46.8515625 C-93.80527026 47.92940747 -96.76545188 48.70761972 -99.83862305 49.44189453 C-103.79125858 50.46253441 -107.63734312 51.81018683 -111.5 53.125 C-112.32242188 53.40214844 -113.14484375 53.67929688 -113.9921875 53.96484375 C-115.99572877 54.6404565 -117.99800011 55.31983337 -120 56 C-119.69323321 60.41708455 -119.37859951 64.83357429 -119.0625 69.25 C-118.97548828 70.50425781 -118.88847656 71.75851563 -118.79882812 73.05078125 C-118.71181641 74.25605469 -118.62480469 75.46132812 -118.53515625 76.703125 C-118.456604 77.81333008 -118.37805176 78.92353516 -118.29711914 80.06738281 C-118.05146878 82.49199427 -117.67756941 84.66697714 -117 87 C-116.01 87 -115.02 87 -114 87 C-114.66 87.99 -115.32 88.98 -116 90 C-117.32 89.67 -118.64 89.34 -120 89 C-120.08302368 88.15236084 -120.08302368 88.15236084 -120.16772461 87.28759766 C-120.42024372 84.73297668 -120.67879723 82.17900185 -120.9375 79.625 C-121.02451172 78.73554687 -121.11152344 77.84609375 -121.20117188 76.9296875 C-121.28818359 76.07890625 -121.37519531 75.228125 -121.46484375 74.3515625 C-121.543396 73.56604004 -121.62194824 72.78051758 -121.70288086 71.97119141 C-121.90696298 69.92865197 -121.90696298 69.92865197 -123 68 C-123.07033769 66.12620395 -123.0843022 64.24998898 -123.0625 62.375 C-123.05347656 61.37210938 -123.04445313 60.36921875 -123.03515625 59.3359375 C-123.02355469 58.56507812 -123.01195312 57.79421875 -123 57 C-123.66 57 -124.32 57 -125 57 C-125 56.34 -125 55.68 -125 55 C-120.61538462 52 -120.61538462 52 -118 52 C-118.495 50.515 -118.495 50.515 -119 49 C-119.515625 49.185625 -120.03125 49.37125 -120.5625 49.5625 C-123.85005391 50.15257378 -126.72051435 49.51660509 -130 49 C-130.33128406 73.96692606 -130.05596784 98.65711495 -127.93127441 123.54182434 C-127.86371948 124.33368637 -127.79616455 125.1255484 -127.7265625 125.94140625 C-127.65997437 126.71735641 -127.59338623 127.49330658 -127.52478027 128.29277039 C-126.91945461 135.54497448 -126.63603405 142.78731871 -126.4375 150.0625 C-126.19393608 158.77738233 -125.7522147 167.43811148 -125 176.125 C-124.9167749 177.09832275 -124.8335498 178.07164551 -124.74780273 179.07446289 C-124.44852321 183.69027864 -124.44852321 183.69027864 -123 188 C-122.92883618 190.37402501 -122.91590915 192.75000677 -122.9375 195.125 C-122.94652344 196.40632812 -122.95554687 197.68765625 -122.96484375 199.0078125 C-122.97644531 199.99523437 -122.98804688 200.98265625 -123 202 C-122.34 202 -121.68 202 -121 202 C-121 206.29 -121 210.58 -121 215 C-121.66 215 -122.32 215 -123 215 C-126.93931293 186.24072199 -129.18622673 157.59120105 -130.61590576 128.60493469 C-130.91069405 122.66619991 -131.23539348 116.72956 -131.5703125 110.79296875 C-132.42401128 95.47035336 -133.19256779 80.15255749 -133.29754639 64.8036499 C-133.30742144 63.40618905 -133.3218586 62.00875209 -133.34112549 60.61138916 C-133.36452878 58.70329492 -133.36453387 56.7949561 -133.36328125 54.88671875 C-133.36626221 53.81639404 -133.36924316 52.74606934 -133.37231445 51.64331055 C-133 49 -133 49 -131.70703125 47.12939453 C-129.25116566 45.50456126 -127.03118693 46.01666521 -124.18505859 46.12255859 C-120.30640958 45.90500755 -117.20533486 44.08466444 -113.8125 42.3125 C-112.32081494 41.57057951 -110.82730209 40.83232315 -109.33203125 40.09765625 C-108.60064941 39.73687988 -107.86926758 39.37610352 -107.11572266 39.00439453 C-103.12284851 37.10886208 -98.98371269 35.61523986 -94.84375 34.078125 C-92.34721371 33.13163597 -89.92774454 32.10831816 -87.5 31 C-80.33092304 27.75191639 -72.93099233 25.06321634 -65.5390625 22.37109375 C-56.90127969 19.22344223 -48.3417135 15.96863548 -39.86132812 12.41674805 C-35.1826992 10.46307743 -30.46575781 8.70746743 -25.67578125 7.04296875 C-22.49041386 5.80137299 -19.49554904 4.27724451 -16.4375 2.75 C-10.82580575 0.09147659 -6.17026782 -0.98874474 0 0 Z " fill="#09BDFB" transform="translate(652,37)"/>
<path d="M0 0 C-0.66 0 -1.32 0 -2 0 C-2.33 1.98 -2.66 3.96 -3 6 C3.98009837 6.38073264 9.83088533 5.2449079 16.03125 1.90625 C18.99430454 0.54230426 21.79037912 0.87655304 25 1 C22.24427058 3.75572942 18.96474487 4.68397738 15.375 6 C14.68792969 6.26039062 14.00085938 6.52078125 13.29296875 6.7890625 C9.26321624 8.28604373 5.26431663 9.47106431 1.08447266 10.46386719 C-2.84268438 11.47394412 -6.66326485 12.81901035 -10.5 14.125 C-11.32242188 14.40214844 -12.14484375 14.67929688 -12.9921875 14.96484375 C-14.99572877 15.6404565 -16.99800011 16.31983337 -19 17 C-18.69323321 21.41708455 -18.37859951 25.83357429 -18.0625 30.25 C-17.97548828 31.50425781 -17.88847656 32.75851563 -17.79882812 34.05078125 C-17.71181641 35.25605469 -17.62480469 36.46132812 -17.53515625 37.703125 C-17.456604 38.81333008 -17.37805176 39.92353516 -17.29711914 41.06738281 C-17.05146878 43.49199427 -16.67756941 45.66697714 -16 48 C-15.01 48 -14.02 48 -13 48 C-13.66 48.99 -14.32 49.98 -15 51 C-16.32 50.67 -17.64 50.34 -19 50 C-19.08302368 49.15236084 -19.08302368 49.15236084 -19.16772461 48.28759766 C-19.42024372 45.73297668 -19.67879723 43.17900185 -19.9375 40.625 C-20.06801758 39.29082031 -20.06801758 39.29082031 -20.20117188 37.9296875 C-20.28818359 37.07890625 -20.37519531 36.228125 -20.46484375 35.3515625 C-20.543396 34.56604004 -20.62194824 33.78051758 -20.70288086 32.97119141 C-20.90696298 30.92865197 -20.90696298 30.92865197 -22 29 C-22.07033769 27.12620395 -22.0843022 25.24998898 -22.0625 23.375 C-22.05347656 22.37210938 -22.04445313 21.36921875 -22.03515625 20.3359375 C-22.02355469 19.56507812 -22.01195312 18.79421875 -22 18 C-22.66 18 -23.32 18 -24 18 C-24 17.34 -24 16.68 -24 16 C-19.61538462 13 -19.61538462 13 -17 13 C-17.33 12.01 -17.66 11.02 -18 10 C-18.7734375 10.2784375 -18.7734375 10.2784375 -19.5625 10.5625 C-22.85005391 11.15257378 -25.72051435 10.51660509 -29 10 C-29.33128406 34.96692606 -29.05596784 59.65711495 -26.93127441 84.54182434 C-26.86371948 85.33368637 -26.79616455 86.1255484 -26.7265625 86.94140625 C-26.65997437 87.71735641 -26.59338623 88.49330658 -26.52478027 89.29277039 C-25.91945461 96.54497448 -25.63603405 103.78731871 -25.4375 111.0625 C-25.19393608 119.77738233 -24.7522147 128.43811148 -24 137.125 C-23.9167749 138.09832275 -23.8335498 139.07164551 -23.74780273 140.07446289 C-23.44852321 144.69027864 -23.44852321 144.69027864 -22 149 C-21.92883618 151.37402501 -21.91590915 153.75000677 -21.9375 156.125 C-21.94652344 157.40632812 -21.95554687 158.68765625 -21.96484375 160.0078125 C-21.97644531 160.99523437 -21.98804688 161.98265625 -22 163 C-21.34 163 -20.68 163 -20 163 C-20 167.29 -20 171.58 -20 176 C-20.66 176 -21.32 176 -22 176 C-25.93931293 147.24072199 -28.18622673 118.59120105 -29.61590576 89.60493469 C-29.91069405 83.66619991 -30.23539348 77.72956 -30.5703125 71.79296875 C-31.42401128 56.47035336 -32.19256779 41.15255749 -32.29754639 25.8036499 C-32.30742144 24.40618905 -32.3218586 23.00875209 -32.34112549 21.61138916 C-32.36452878 19.70329492 -32.36453387 17.7949561 -32.36328125 15.88671875 C-32.36626221 14.81639404 -32.36924316 13.74606934 -32.37231445 12.64331055 C-32 10 -32 10 -30.70483398 8.12792969 C-28.2559469 6.50772944 -26.06120941 7.03927679 -23.22460938 7.14892578 C-19.14563568 6.87586016 -15.80572604 4.8290452 -12.25 2.9375 C-10.78165216 2.16502136 -9.30783629 1.40282569 -7.828125 0.65234375 C-7.1877832 0.31195068 -6.54744141 -0.02844238 -5.88769531 -0.37915039 C-3.56444284 -1.14325166 -2.27987637 -0.78113901 0 0 Z " fill="#19BEF8" transform="translate(551,76)"/>
<path d="M0 0 C0.66 0.33 1.32 0.66 2 1 C1.99815641 1.83875955 1.99631283 2.67751909 1.99441338 3.54169559 C1.95023256 23.95650357 1.91714254 44.3713033 1.89637566 64.78614902 C1.88606586 74.65863831 1.87201116 84.53109566 1.84912109 94.40356445 C1.82917818 103.00903515 1.81628141 111.61448272 1.81182301 120.21997589 C1.80921717 124.77593246 1.8030984 129.33182289 1.78853989 133.88775826 C1.77494177 138.17799992 1.77078188 142.46814833 1.77378464 146.7584095 C1.77323547 148.33094286 1.76927132 149.90347942 1.76158905 151.47599411 C1.75159278 153.6281576 1.75404798 155.77997207 1.75949097 157.93214417 C1.75764738 159.13508401 1.75580379 160.33802385 1.75390434 161.57741642 C2.02025772 165.28173496 2.9038933 168.46096979 4 172 C4.62857553 178.6462618 3.92154098 184.63489551 2 191 C1.67 191 1.34 191 1 191 C0.875 184.375 0.875 184.375 2 181 C2.39783138 175.9276499 1.56213082 172.51266624 -0.328125 167.9296875 C-1.2696552 165.22552518 -1.27592914 162.82827365 -1 160 C-0.67 159.67 -0.34 159.34 0 159 C0.09680041 156.94972261 0.12186943 154.89605121 0.12025452 152.8434906 C0.12110894 152.19335135 0.12196337 151.5432121 0.12284368 150.87337166 C0.12450026 148.6791442 0.11897425 146.48499198 0.11352539 144.29077148 C0.11324353 142.72414146 0.11340123 141.1575113 0.1139679 139.59088135 C0.11425592 135.32453623 0.10835843 131.05821898 0.10139394 126.79188037 C0.09516118 122.33822949 0.09455666 117.88457803 0.09336853 113.43092346 C0.09025498 104.99132557 0.08204128 96.55174056 0.07201904 88.11214834 C0.06085863 78.50650556 0.05534764 68.90086218 0.05032361 59.29521453 C0.03985868 39.53013582 0.02225879 19.76506872 0 0 Z " fill="#7AD4EB" transform="translate(654,40)"/>
<path d="M0 0 C2.97851562 0.53710938 2.97851562 0.53710938 5.95703125 1.07421875 C5.95703125 1.40421875 5.95703125 1.73421875 5.95703125 2.07421875 C3.31703125 2.40421875 0.67703125 2.73421875 -2.04296875 3.07421875 C-2.37425281 28.04114481 -2.09893659 52.7313337 0.02575684 77.61604309 C0.09331177 78.40790512 0.1608667 79.19976715 0.23046875 80.015625 C0.29705688 80.79157516 0.36364502 81.56752533 0.43225098 82.36698914 C1.03757664 89.61919323 1.3209972 96.86153746 1.51953125 104.13671875 C1.76309517 112.85160108 2.20481655 121.51233023 2.95703125 130.19921875 C3.04025635 131.1725415 3.12348145 132.14586426 3.20922852 133.14868164 C3.50850804 137.76449739 3.50850804 137.76449739 4.95703125 142.07421875 C5.02819507 144.44824376 5.0411221 146.82422552 5.01953125 149.19921875 C5.01050781 150.48054687 5.00148438 151.761875 4.9921875 153.08203125 C4.98058594 154.06945312 4.96898437 155.056875 4.95703125 156.07421875 C5.61703125 156.07421875 6.27703125 156.07421875 6.95703125 156.07421875 C6.95703125 160.36421875 6.95703125 164.65421875 6.95703125 169.07421875 C6.29703125 169.07421875 5.63703125 169.07421875 4.95703125 169.07421875 C1.01771832 140.31494074 -1.22919548 111.6654198 -2.65887451 82.67915344 C-2.9536628 76.74041866 -3.27836223 70.80377875 -3.61328125 64.8671875 C-4.46698003 49.54457211 -5.23553654 34.22677624 -5.34051514 18.87786865 C-5.35039019 17.4804078 -5.36482735 16.08297084 -5.38409424 14.68560791 C-5.40749753 12.77751367 -5.40750262 10.86917485 -5.40625 8.9609375 C-5.40923096 7.89061279 -5.41221191 6.82028809 -5.4152832 5.7175293 C-5.04296875 3.07421875 -5.04296875 3.07421875 -3.64794922 1.2109375 C-2.04296875 0.07421875 -2.04296875 0.07421875 0 0 Z " fill="#4EC1EB" transform="translate(524.04296875,82.92578125)"/>
<path d="M0 0 C2.13603232 3.5777834 2.67813507 7.24251191 3.25390625 11.30078125 C3.35968491 12.01421188 3.46546356 12.72764252 3.57444763 13.46269226 C3.79705439 14.97602071 4.01621796 16.48985909 4.23217773 18.00415039 C4.55612396 20.26794311 4.89334738 22.52944573 5.23242188 24.79101562 C6.45941395 33.14218252 7.34422531 41.42103519 7.76928711 49.85229492 C8.05839582 53.79671667 8.75094906 57.25284718 10 61 C10.76560308 70.63566167 10.87611081 78.84143292 5 87 C2.625 89.6875 2.625 89.6875 0 92 C-0.76957031 92.82951172 -0.76957031 92.82951172 -1.5546875 93.67578125 C-5.79335476 98.23674348 -10.28611716 101.47471981 -16 104 C-16.66 104 -17.32 104 -18 104 C-18 103.34 -18 102.68 -18 102 C-17.01 102 -16.02 102 -15 102 C-15 101.34 -15 100.68 -15 100 C-12.09451118 97.95830515 -10.59857954 97 -7 97 C-7 95.35 -7 93.7 -7 92 C-5.02 91.01 -5.02 91.01 -3 90 C-3 89.34 -3 88.68 -3 88 C-1.68 88.33 -0.36 88.66 1 89 C1.33 87.68 1.66 86.36 2 85 C2.66 85 3.32 85 4 85 C4 83.68 4 82.36 4 81 C4.66 81 5.32 81 6 81 C5.67 79.68 5.34 78.36 5 77 C5.99 77 6.98 77 8 77 C8.09706112 70.88514973 7.77040851 65.06696699 7 59 C5.515 58.505 5.515 58.505 4 58 C3.957279 56.33388095 3.95936168 54.66617115 4 53 C4.33 52.67 4.66 52.34 5 52 C4.90460745 38.97891664 2.66057735 25.44659566 0.41015625 12.64453125 C-0.01150197 9.9258397 -0.09964211 7.37351616 -0.0625 4.625 C-0.05347656 3.75101563 -0.04445313 2.87703125 -0.03515625 1.9765625 C-0.02355469 1.32429687 -0.01195312 0.67203125 0 0 Z " fill="#55C6EF" transform="translate(543,211)"/>
<path d="M0 0 C0.66 -0.33 1.32 -0.66 2 -1 C2 -0.34 2 0.32 2 1 C2.99 1.33 3.98 1.66 5 2 C3.9375 4.4375 3.9375 4.4375 2 7 C-1.3125 7.625 -1.3125 7.625 -5 8 C-7.01652194 8.9662501 -9.01679982 9.96708324 -11 11 C-16.56243578 13.0601614 -20.28678773 13.00231794 -26 12 C-25.67 10.02 -25.34 8.04 -25 6 C-24.34 6 -23.68 6 -23 6 C-23 5.34 -23 4.68 -23 4 C-22.34773437 3.89042969 -21.69546875 3.78085938 -21.0234375 3.66796875 C-16.92110235 2.92373981 -13.52482455 2.27784829 -9.8125 0.3125 C-6.16792023 -1.38830389 -3.87783876 -0.74573822 0 0 Z " fill="#07BEFC" transform="translate(574,70)"/>
<path d="M0 0 C-0.33 19.8 -0.66 39.6 -1 60 C-1.66 60 -2.32 60 -3 60 C-3 40.86 -3 21.72 -3 2 C-13.49443738 5.08659923 -23.81995604 8.19068639 -34.1015625 11.84375 C-34.96265625 12.14023438 -35.82375 12.43671875 -36.7109375 12.7421875 C-37.46681152 13.0088623 -38.22268555 13.27553711 -39.00146484 13.55029297 C-41 14 -41 14 -44 13 C-37.25 9 -37.25 9 -35 9 C-35 8.34 -35 7.68 -35 7 C-34.34 7 -33.68 7 -33 7 C-32.67 6.01 -32.34 5.02 -32 4 C-29.66883683 2.39230126 -28.57183574 1.90469404 -25.75 2.375 C-25.1725 2.58125 -24.595 2.7875 -24 3 C-24.33 3.33 -24.66 3.66 -25 4 C-19.27362941 3.65970339 -14.30495421 3.08518156 -9.08203125 0.62109375 C-7 0 -7 0 0 0 Z " fill="#3ABFF3" transform="translate(639,102)"/>
<path d="M0 0 C0.66 0.33 1.32 0.66 2 1 C2.13169917 17.35319156 2.26213791 33.70639265 2.39115143 50.0596056 C2.4511079 57.65587136 2.5114483 65.25213367 2.57275391 72.84838867 C2.62630322 79.48370597 2.67906975 86.11902899 2.73096704 92.75435942 C2.75836901 96.2545824 2.78611461 99.75480174 2.81480408 103.25501442 C2.86737603 109.70022892 2.91484591 116.14538898 2.94946289 122.59072876 C2.97758964 127.6669605 3.03914037 132.74155894 3.11889648 137.81723022 C3.14658361 140.29180616 3.1740193 142.76638493 3.20117188 145.2409668 C3.22548531 146.38495091 3.24979874 147.52893503 3.27484894 148.70758533 C3.28336632 149.75631164 3.2918837 150.80503794 3.30065918 151.88554382 C3.31497734 152.80459849 3.3292955 153.72365316 3.34404755 154.67055798 C3 157 3 157 1.6062088 158.81965351 C0 160 0 160 -2 160 C-2 158.35 -2 156.7 -2 155 C-0.68 155 0.64 155 2 155 C1.93148331 153.77433319 1.86296661 152.54866638 1.79237366 151.28585815 C0.96433916 135.49760315 0.78866941 119.71931769 0.69667697 103.91276407 C0.67440289 100.24397551 0.64722222 96.5752229 0.62062073 92.90646362 C0.57124113 85.99756099 0.52610573 79.08863781 0.48259836 72.17969596 C0.43274974 64.29781253 0.37801252 56.41596523 0.32291877 48.53411698 C0.209942 32.35611152 0.10292848 16.17807258 0 0 Z " fill="#1EBAF1" transform="translate(652,39)"/>
<path d="M0 0 C-0.33 0.66 -0.66 1.32 -1 2 C-3.13305664 2.41064453 -3.13305664 2.41064453 -5.91015625 2.6328125 C-6.89951172 2.71660156 -7.88886719 2.80039063 -8.90820312 2.88671875 C-9.94912109 2.96535156 -10.99003906 3.04398437 -12.0625 3.125 C-13.62967773 3.25455078 -13.62967773 3.25455078 -15.22851562 3.38671875 C-17.81844641 3.59958977 -20.4087755 3.80361379 -23 4 C-23 4.66 -23 5.32 -23 6 C-23.928125 6.268125 -24.85625 6.53625 -25.8125 6.8125 C-28.8311641 7.93710035 -29.9155143 8.70706573 -32 11 C-32.66 11 -33.32 11 -34 11 C-34 11.66 -34 12.32 -34 13 C-34.66 13 -35.32 13 -36 13 C-36 12.34 -36 11.68 -36 11 C-38.31 11.33 -40.62 11.66 -43 12 C-43.66 13.65 -44.32 15.3 -45 17 C-46.32 16.67 -47.64 16.34 -49 16 C-49.226875 16.886875 -49.45375 17.77375 -49.6875 18.6875 C-51.19149475 22.48329629 -52.87370429 24.4074621 -56 27 C-56.99 27 -57.98 27 -59 27 C-55.24998124 16.5548258 -47.22507322 11.29739067 -37.6640625 6.65625 C-25.89833826 1.22683973 -12.89918241 -0.45260289 0 0 Z " fill="#53C3E9" transform="translate(530,253)"/>
<path d="M0 0 C0.66 0 1.32 0 2 0 C2.08564209 1.08007324 2.17128418 2.16014648 2.25952148 3.27294922 C2.57776785 7.27264088 2.90145583 11.27187658 3.22680664 15.27099609 C3.36696945 17.00329798 3.50564781 18.73572063 3.64282227 20.46826172 C3.84002606 22.95573491 4.04253001 25.44272773 4.24609375 27.9296875 C4.3065538 28.70682098 4.36701385 29.48395447 4.42930603 30.28463745 C4.69788033 34.2713093 4.69788033 34.2713093 6 38 C6.07116382 40.37402501 6.08409085 42.75000677 6.0625 45.125 C6.05347656 46.40632813 6.04445313 47.68765625 6.03515625 49.0078125 C6.02355469 49.99523437 6.01195312 50.98265625 6 52 C6.66 52 7.32 52 8 52 C8 56.29 8 60.58 8 65 C7.34 65 6.68 65 6 65 C3.95489571 50.06954794 1.94260757 35.15208522 0.75 20.125 C0.67023926 19.12992432 0.59047852 18.13484863 0.50830078 17.10961914 C0.08426586 11.39004413 -0.07065624 5.73493173 0 0 Z " fill="#67CEF0" transform="translate(523,187)"/>
<path d="M0 0 C2 2 2 2 2 5 C2.99 5.33 3.98 5.66 5 6 C6.38671875 7.77734375 6.38671875 7.77734375 7.6875 9.9375 C8.34298828 11.00291016 8.34298828 11.00291016 9.01171875 12.08984375 C10 14 10 14 10 16 C11.32 16 12.64 16 14 16 C15.02104551 16.97850195 16.0206121 17.97980427 17 19 C19.10332891 19.71447643 19.10332891 19.71447643 21 20 C21 20.66 21 21.32 21 22 C22.299375 21.979375 23.59875 21.95875 24.9375 21.9375 C26.29165633 21.91600546 27.64756083 21.92851801 29 22 C29.33 22.33 29.66 22.66 30 23 C37.02957177 23.43376668 44.02431363 22.84737188 51 22 C43.6712417 26.88583886 34.66774528 26.87074299 26.203125 25.5703125 C15.54311285 23.13115718 8.41041402 17.43111871 2.27734375 8.52734375 C0.83527731 5.67408079 0.37155347 3.16049804 0 0 Z " fill="#76D2F3" transform="translate(582,229)"/>
<path d="M0 0 C0.33 0.99 0.66 1.98 1 3 C-1 5 -1 5 -4 7 C-4.72382467 9.05925139 -4.72382467 9.05925139 -5 11 C-3.35 10.34 -1.7 9.68 0 9 C0.33 10.32 0.66 11.64 1 13 C-0.051875 12.87625 -1.10375 12.7525 -2.1875 12.625 C-6.15912482 12.6320624 -6.15912482 12.6320624 -8.8125 15.5625 C-13.60332954 22.32602406 -13.87212467 31.02088196 -15 39 C-15.33 39 -15.66 39 -16 39 C-16.59077338 24.84331949 -13.76081492 14.81140559 -4.2109375 3.96875 C-2.85028692 2.60165084 -1.43193953 1.29223811 0 0 Z " fill="#54CBF5" transform="translate(597,189)"/>
<path d="M0 0 C-5.445 1.98 -5.445 1.98 -11 4 C-10.69176742 8.41700277 -10.37860057 12.83355938 -10.0625 17.25 C-9.97548828 18.50425781 -9.88847656 19.75851563 -9.79882812 21.05078125 C-9.71181641 22.25605469 -9.62480469 23.46132812 -9.53515625 24.703125 C-9.456604 25.81333008 -9.37805176 26.92353516 -9.29711914 28.06738281 C-9.05146878 30.49199427 -8.67756941 32.66697714 -8 35 C-7.01 35 -6.02 35 -5 35 C-5.66 35.99 -6.32 36.98 -7 38 C-8.32 37.67 -9.64 37.34 -11 37 C-11.08302368 36.15236084 -11.08302368 36.15236084 -11.16772461 35.28759766 C-11.42024372 32.73297668 -11.67879723 30.17900185 -11.9375 27.625 C-12.02451172 26.73554687 -12.11152344 25.84609375 -12.20117188 24.9296875 C-12.28818359 24.07890625 -12.37519531 23.228125 -12.46484375 22.3515625 C-12.543396 21.56604004 -12.62194824 20.78051758 -12.70288086 19.97119141 C-12.90696298 17.92865197 -12.90696298 17.92865197 -14 16 C-14.07033769 14.12620395 -14.0843022 12.24998898 -14.0625 10.375 C-14.05347656 9.37210938 -14.04445313 8.36921875 -14.03515625 7.3359375 C-14.01775391 6.17964844 -14.01775391 6.17964844 -14 5 C-14.66 5 -15.32 5 -16 5 C-16 4.34 -16 3.68 -16 3 C-11.3242985 -0.65289179 -5.68145251 -1.8938175 0 0 Z " fill="#43C2ED" transform="translate(543,89)"/>
<path d="M0 0 C0 0.66 0 1.32 0 2 C-0.99 2 -1.98 2 -3 2 C-3 2.66 -3 3.32 -3 4 C-4.32 4 -5.64 4 -7 4 C-7 4.99 -7 5.98 -7 7 C-7.66 7 -8.32 7 -9 7 C-9.33 7.66 -9.66 8.32 -10 9 C-11.32 9 -12.64 9 -14 9 C-14 9.66 -14 10.32 -14 11 C-17.6246834 12.71165605 -19.20629442 12.9484264 -23 12 C-23.825 12.33 -24.65 12.66 -25.5 13 C-28.32559344 14.13023738 -29.1893225 13.85749483 -32 13 C-5.06451613 0 -5.06451613 0 0 0 Z " fill="#37C2F2" transform="translate(591,99)"/>
<path d="M0 0 C0.66 0.33 1.32 0.66 2 1 C1.67 1.66 1.34 2.32 1 3 C-4.445 2.505 -4.445 2.505 -10 2 C-10 2.66 -10 3.32 -10 4 C-10.99 4 -11.98 4 -13 4 C-13 4.66 -13 5.32 -13 6 C-15.31 6.33 -17.62 6.66 -20 7 C-20.33 7.99 -20.66 8.98 -21 10 C-27.66666667 11.33333333 -34.33333333 12.66666667 -41 14 C-38.31414569 11.31414569 -35.19611685 10.48943495 -31.6875 9.25 C-26.31959753 7.32141952 -21.22999757 5.19271034 -16.125 2.625 C-10.64411458 0.01082925 -6.03178201 -0.9665533 0 0 Z " fill="#66CCF1" transform="translate(652,37)"/>
<path d="M0 0 C0.33 0 0.66 0 1 0 C1 3.63 1 7.26 1 11 C-0.65 11 -2.3 11 -4 11 C-4 10.34 -4 9.68 -4 9 C-10.6 9 -17.2 9 -24 9 C-24 9.66 -24 10.32 -24 11 C-25.65 11 -27.3 11 -29 11 C-29 11.66 -29 12.32 -29 13 C-31.97 13.66 -34.94 14.32 -38 15 C-35.30424979 12.30424979 -33.9201849 11.31319893 -30.5625 9.875 C-29.80066406 9.54242188 -29.03882813 9.20984375 -28.25390625 8.8671875 C-24.72140295 7.50806145 -21.59868968 6.87322196 -17.8125 6.8671875 C-17.03132812 6.86589844 -16.25015625 6.86460937 -15.4453125 6.86328125 C-14.63835938 6.86714844 -13.83140625 6.87101563 -13 6.875 C-12.19304688 6.87113281 -11.38609375 6.86726562 -10.5546875 6.86328125 C-9.77351562 6.86457031 -8.99234375 6.86585938 -8.1875 6.8671875 C-7.12595703 6.86887939 -7.12595703 6.86887939 -6.04296875 6.87060547 C-3.92287267 7.00488498 -2.04042437 7.42283502 0 8 C0 5.36 0 2.72 0 0 Z " fill="#55C4EE" transform="translate(637,174)"/>
<path d="M0 0 C2.64 0 5.28 0 8 0 C5.69666667 1.53555555 3.80756241 2.60418214 1.3125 3.6875 C0.14847656 4.19603516 0.14847656 4.19603516 -1.0390625 4.71484375 C-2.01617188 5.13894531 -2.99328125 5.56304687 -4 6 C-6.05036159 6.8969701 -8.10014973 7.7952428 -10.14990234 8.69360352 C-13.4324562 10.13092496 -16.71637084 11.56513684 -20 13 C-19.67 18.94 -19.34 24.88 -19 31 C-19.66 31 -20.32 31 -21 31 C-21.19645093 27.87549468 -21.38063489 24.75038555 -21.5625 21.625 C-21.61857422 20.73554688 -21.67464844 19.84609375 -21.73242188 18.9296875 C-21.78076172 18.07890625 -21.82910156 17.228125 -21.87890625 16.3515625 C-21.9260376 15.56604004 -21.97316895 14.78051758 -22.02172852 13.97119141 C-22 12 -22 12 -21 10 C-17.65489648 8.37265234 -15.81164166 8 -12 8 C-12 7.34 -12 6.68 -12 6 C-10.9275 5.71125 -9.855 5.4225 -8.75 5.125 C-5.90184789 4.27055437 -3.51227358 3.54601451 -1 2 C-0.67 1.34 -0.34 0.68 0 0 Z " fill="#65CEF1" transform="translate(556,129)"/>
<path d="M0 0 C-3 2 -3 2 -7 2 C-7 2.66 -7 3.32 -7 4 C-7.99 4 -8.98 4 -10 4 C-10 4.99 -10 5.98 -10 7 C-8.02 7 -6.04 7 -4 7 C-6 9 -6 9 -9.125 9.125 C-10.07375 9.08375 -11.0225 9.0425 -12 9 C-12.33 8.34 -12.66 7.68 -13 7 C-16.89602291 7.39755336 -19.95726058 7.98125464 -23.5625 9.5625 C-27.04321309 11.01807093 -29.27955605 11.27222761 -33 11 C-29.10317798 8.40211865 -25.0097815 7.01941691 -20.63671875 5.37890625 C-18.21079223 4.45908663 -15.79635805 3.5083716 -13.39453125 2.52734375 C-12.25371094 2.06457031 -11.11289062 1.60179687 -9.9375 1.125 C-8.37322266 0.47917969 -8.37322266 0.47917969 -6.77734375 -0.1796875 C-3.94436327 -1.01643279 -2.70921415 -1.05250046 0 0 Z " fill="#42C4F3" transform="translate(599,57)"/>
<path d="M0 0 C0 0.66 0 1.32 0 2 C-0.99 2.33 -1.98 2.66 -3 3 C-4.21869929 5.50447516 -4.21869929 5.50447516 -5 8 C-6.32 7.67 -7.64 7.34 -9 7 C-9.226875 7.886875 -9.45375 8.77375 -9.6875 9.6875 C-11.19149475 13.48329629 -12.87370429 15.4074621 -16 18 C-16.99 18 -17.98 18 -19 18 C-16.57958802 11.0336366 -11.49520449 5.17682339 -5.125 1.4375 C-2 0 -2 0 0 0 Z " fill="#3EC2F1" transform="translate(490,262)"/>
<path d="M0 0 C0.33 0 0.66 0 1 0 C0.97679687 1.07378906 0.95359375 2.14757812 0.9296875 3.25390625 C0.91091376 4.69009715 0.8927153 6.12629565 0.875 7.5625 C0.85824219 8.26697266 0.84148438 8.97144531 0.82421875 9.69726562 C0.77999908 14.49509968 1.59299502 18.37542549 3 23 C3.62857553 29.6462618 2.92154098 35.63489551 1 42 C0.67 42 0.34 42 0 42 C-0.125 35.375 -0.125 35.375 1 32 C1.39783138 26.9276499 0.56213082 23.51266624 -1.328125 18.9296875 C-2.2696552 16.22552518 -2.27592914 13.82827365 -2 11 C-1.67 10.67 -1.34 10.34 -1 10 C-0.76712992 8.31816052 -0.58735834 6.6287584 -0.4375 4.9375 C-0.35371094 4.01839844 -0.26992188 3.09929687 -0.18359375 2.15234375 C-0.12300781 1.44207031 -0.06242188 0.73179687 0 0 Z " fill="#59C6EC" transform="translate(655,189)"/>
<path d="M0 0 C-2.39680621 1.59787081 -4.24999378 2.59369906 -6.87890625 3.62109375 C-8.00703735 4.06291992 -8.00703735 4.06291992 -9.15795898 4.51367188 C-9.95145752 4.81853516 -10.74495605 5.12339844 -11.5625 5.4375 C-12.37082275 5.74880859 -13.17914551 6.06011719 -14.01196289 6.38085938 C-29.79975199 12.40008267 -29.79975199 12.40008267 -34 11 C-33.01 10.67 -32.02 10.34 -31 10 C-31 9.34 -31 8.68 -31 8 C-30.14728516 7.83564453 -30.14728516 7.83564453 -29.27734375 7.66796875 C-25.42985311 6.87791642 -21.87334175 6.05961347 -18.3125 4.375 C-14.90543039 2.96074469 -12.64329146 2.7334177 -9 3 C-9 2.34 -9 1.68 -9 1 C-6.04335481 -0.4783226 -3.25770263 -0.06032783 0 0 Z " fill="#5AC9EF" transform="translate(634,57)"/>
<path d="M0 0 C0.73605469 0.0721875 1.47210937 0.144375 2.23046875 0.21875 C3.69419922 0.35796875 3.69419922 0.35796875 5.1875 0.5 C6.15042969 0.5928125 7.11335937 0.685625 8.10546875 0.78125 C10.75187667 0.98124844 13.34760865 1.03879183 16 1 C15.01 1.33 14.02 1.66 13 2 C12.87625 2.639375 12.7525 3.27875 12.625 3.9375 C12.41875 4.618125 12.2125 5.29875 12 6 C9.10888212 7.52164099 7.28176588 8 4 8 C3.67 6.35 3.34 4.7 3 3 C2.01 2.67 1.02 2.34 0 2 C0 1.34 0 0.68 0 0 Z " fill="#0EBDFC" transform="translate(512,311)"/>
<path d="M0 0 C-2.75572942 2.75572942 -6.03525513 3.68397738 -9.625 5 C-10.65560547 5.39058594 -10.65560547 5.39058594 -11.70703125 5.7890625 C-18.33650475 8.25179374 -24.9941554 9.94912331 -32 11 C-27.29210705 6.29210705 -19.26432825 4.67331329 -13.0078125 2.7109375 C-10.95308791 2.03938556 -10.95308791 2.03938556 -8.9765625 0.921875 C-6.01057073 -0.46147294 -3.21958198 -0.12383008 0 0 Z " fill="#67CBF1" transform="translate(576,77)"/>
<path d="M0 0 C1.79093191 -0.08086147 3.58289628 -0.13912702 5.375 -0.1875 C6.87160156 -0.23970703 6.87160156 -0.23970703 8.3984375 -0.29296875 C9.25695312 -0.19628906 10.11546875 -0.09960938 11 0 C11.66 0.99 12.32 1.98 13 3 C15.12694665 3.41527124 15.12694665 3.41527124 17.5703125 3.29296875 C18.46621094 3.28330078 19.36210937 3.27363281 20.28515625 3.26367188 C21.22230469 3.23853516 22.15945313 3.21339844 23.125 3.1875 C24.54232422 3.16719727 24.54232422 3.16719727 25.98828125 3.14648438 C28.32608779 3.11106306 30.66276237 3.06167271 33 3 C28.4665714 5.57749166 24.41849374 5.36751869 19.3125 5.375 C18.45205078 5.39949219 17.59160156 5.42398437 16.70507812 5.44921875 C10.30890117 5.47813892 5.62111762 4.01604274 0 1 C0 0.67 0 0.34 0 0 Z " fill="#6BCEEF" transform="translate(483,316)"/>
<path d="M0 0 C2.16926659 3.25389988 2.24080049 4.13395957 2.1953125 7.88671875 C2.18886719 8.82451172 2.18242187 9.76230469 2.17578125 10.72851562 C2.15902344 11.70498047 2.14226562 12.68144531 2.125 13.6875 C2.11597656 14.67556641 2.10695313 15.66363281 2.09765625 16.68164062 C2.0740843 19.12133765 2.04118022 21.56054697 2 24 C-2.23776288 18.54576993 -2.48871907 13.7738736 -2 7 C-1.49043803 4.57182642 -0.80179953 2.35528611 0 0 Z " fill="#4BC1EE" transform="translate(470,280)"/>
<path d="M0 0 C0 0.33 0 0.66 0 1 C-0.928125 1.268125 -1.85625 1.53625 -2.8125 1.8125 C-5.8311641 2.93710035 -6.9155143 3.70706573 -9 6 C-9.66 6 -10.32 6 -11 6 C-11 6.66 -11 7.32 -11 8 C-11.66 8 -12.32 8 -13 8 C-13 7.34 -13 6.68 -13 6 C-14.32 5.67 -15.64 5.34 -17 5 C-17 4.34 -17 3.68 -17 3 C-11.42531458 -0.61601216 -6.39432346 -0.30720059 0 0 Z " fill="#2FC3F5" transform="translate(507,258)"/>
<path d="M0 0 C2.64 0 5.28 0 8 0 C2.51373655 5.48626345 -8.44793161 7.5468759 -16 8 C-14.30820672 5.95780294 -13.36272334 5.08206694 -10.73828125 4.48828125 C-9.93777344 4.43027344 -9.13726563 4.37226562 -8.3125 4.3125 C-7.50425781 4.24675781 -6.69601562 4.18101563 -5.86328125 4.11328125 C-4.94095703 4.05720703 -4.94095703 4.05720703 -4 4 C-4 3.34 -4 2.68 -4 2 C-2.68 2 -1.36 2 0 2 C0 1.34 0 0.68 0 0 Z " fill="#6BCEF2" transform="translate(592,69)"/>
<path d="M0 0 C0.5259375 0.23203125 1.051875 0.4640625 1.59375 0.703125 C0.93375 0.703125 0.27375 0.703125 -0.40625 0.703125 C-0.40625 1.693125 -0.40625 2.683125 -0.40625 3.703125 C-2.71625 3.703125 -5.02625 3.703125 -7.40625 3.703125 C-8.06625 5.353125 -8.72625 7.003125 -9.40625 8.703125 C-12.70625 9.033125 -16.00625 9.363125 -19.40625 9.703125 C-15.96695813 7.1236561 -12.65361628 5.03308518 -8.90625 2.953125 C-7.22015625 2.00179687 -7.22015625 2.00179687 -5.5 1.03125 C-2.40625 -0.296875 -2.40625 -0.296875 0 0 Z " fill="#56C7F1" transform="translate(557.40625,113.296875)"/>
<path d="M0 0 C0.66 0 1.32 0 2 0 C0.59251325 4.20732598 -1.41451506 6.96494362 -4.375 10.25 C-5.14585937 11.12140625 -5.91671875 11.9928125 -6.7109375 12.890625 C-8.94154745 14.94613588 -10.04350515 15.64900061 -13 16 C-13 15.34 -13 14.68 -13 14 C-11.68 13.67 -10.36 13.34 -9 13 C-9 12.34 -9 11.68 -9 11 C-8.34 11 -7.68 11 -7 11 C-7 10.34 -7 9.68 -7 9 C-7.66 9 -8.32 9 -9 9 C-9 8.34 -9 7.68 -9 7 C-7.35 7.33 -5.7 7.66 -4 8 C-4.33 7.01 -4.66 6.02 -5 5 C-3.35 4.34 -1.7 3.68 0 3 C0 2.01 0 1.02 0 0 Z " fill="#5ECAF3" transform="translate(653,231)"/>
<path d="M0 0 C0.33 0 0.66 0 1 0 C1.08690253 4.43737712 1.14035926 8.87453634 1.1875 13.3125 C1.21263672 14.57513672 1.23777344 15.83777344 1.26367188 17.13867188 C1.27333984 18.34716797 1.28300781 19.55566406 1.29296875 20.80078125 C1.3086792 21.91622314 1.32438965 23.03166504 1.34057617 24.1809082 C1 27 1 27 -0.39331055 28.88745117 C-2 30 -2 30 -4 30 C-4 28.35 -4 26.7 -4 25 C-2.68 25 -1.36 25 0 25 C0 16.75 0 8.5 0 0 Z " fill="#20C3FD" transform="translate(654,169)"/>
<path d="M0 0 C1.65 0 3.3 0 5 0 C2.56666253 3.08557225 1.22796222 3.94858724 -2.671875 4.828125 C-4.02932282 4.98627426 -5.38896205 5.12650317 -6.75 5.25 C-7.79607422 5.36601562 -7.79607422 5.36601562 -8.86328125 5.484375 C-10.57388433 5.67183835 -12.28679271 5.83805503 -14 6 C-11.54699998 2.32049998 -10.23729127 1.97783645 -6 1 C-2.625 1.375 -2.625 1.375 0 2 C0 1.34 0 0.68 0 0 Z " fill="#34C3F5" transform="translate(635,247)"/>
<path d="M0 0 C0.66 0.33 1.32 0.66 2 1 C-5.06209798 5.70806532 -12.57158647 8.37567307 -21 9 C-18.92968364 6.92968364 -17.85983925 6.44761366 -15.15625 5.52734375 C-14.40472656 5.26759766 -13.65320313 5.00785156 -12.87890625 4.74023438 C-12.09386719 4.47533203 -11.30882812 4.21042969 -10.5 3.9375 C-8.94755661 3.40599844 -7.39545664 2.87349243 -5.84375 2.33984375 C-4.81024414 1.98974243 -4.81024414 1.98974243 -3.75585938 1.63256836 C-1.92759712 1.01279354 -1.92759712 1.01279354 0 0 Z " fill="#73D1EF" transform="translate(612,90)"/>
<path d="M0 0 C0.50789063 0.37253906 1.01578125 0.74507812 1.5390625 1.12890625 C6.08057654 4.326976 6.08057654 4.326976 11.5 4.8125 C12.325 4.544375 13.15 4.27625 14 4 C13.01 5.485 13.01 5.485 12 7 C7.6822542 6.49202991 3.96697886 5.80317221 0 4 C0 6.31 0 8.62 0 11 C-2.30163882 7.54754176 -2.34490322 6.05261287 -2 2 C-1.34 1.34 -0.68 0.68 0 0 Z " fill="#7D7D7D" transform="translate(351,253)"/>
<path d="M0 0 C0 0.66 0 1.32 0 2 C-3.6246834 3.71165605 -5.20629442 3.9484264 -9 3 C-9.825 3.33 -10.65 3.66 -11.5 4 C-14.25338878 5.10135551 -15.27915413 5.00772069 -18 4 C-11.91353314 0.66693481 -6.88687835 -0.16397329 0 0 Z " fill="#30C0F4" transform="translate(577,108)"/>
<path d="M0 0 C0 0.66 0 1.32 0 2 C-0.99 2.33 -1.98 2.66 -3 3 C-4.21869929 5.50447516 -4.21869929 5.50447516 -5 8 C-5.7425 7.95875 -6.485 7.9175 -7.25 7.875 C-10.08758952 8.00398134 -11.58773938 8.57051222 -14 10 C-10.6083172 5.47775627 -6.20114471 0 0 0 Z " fill="#6FD2F2" transform="translate(490,262)"/>
<path d="M0 0 C-2.92673137 1.95115425 -5.7129896 3.29645658 -8.9375 4.6875 C-9.97777344 5.14511719 -11.01804687 5.60273437 -12.08984375 6.07421875 C-15.02021689 7.00643141 -16.19723367 7.11435288 -19 6 C-15.91190305 4.23537317 -14.76687864 4 -11 4 C-11 3.34 -11 2.68 -11 2 C-7.17679443 0.57741188 -4.08718695 -0.24042276 0 0 Z " fill="#6FD3F2" transform="translate(595,116)"/>
<path d="M0 0 C0.99 0.33 1.98 0.66 3 1 C2 4 2 4 0 6 C-0.33 6.66 -0.66 7.32 -1 8 C-3.375 7.6875 -3.375 7.6875 -6 7 C-6.66 6.01 -7.32 5.02 -8 4 C-6.35 4 -4.7 4 -3 4 C-3 3.34 -3 2.68 -3 2 C-2.01 2 -1.02 2 0 2 C0 1.34 0 0.68 0 0 Z " fill="#2EC2F7" transform="translate(486,308)"/>
<path d="M0 0 C2 2 2 2 2 5 C2.99 5.33 3.98 5.66 5 6 C6.421875 7.7421875 6.421875 7.7421875 7.75 9.875 C8.19859375 10.57367188 8.6471875 11.27234375 9.109375 11.9921875 C10 14 10 14 9 17 C7.67382807 15.30225825 6.36458697 13.59128335 5.0625 11.875 C4.33160156 10.92367187 3.60070312 9.97234375 2.84765625 8.9921875 C0.91859684 5.86817163 0.33869128 3.62345906 0 0 Z " fill="#78D4F2" transform="translate(582,229)"/>
<path d="M0 0 C-0.66 0 -1.32 0 -2 0 C-2 0.66 -2 1.32 -2 2 C-3.65 2 -5.3 2 -7 2 C-7 2.66 -7 3.32 -7 4 C-9.97 4.66 -12.94 5.32 -16 6 C-13.34589702 3.34589702 -11.85713881 2.23897673 -8.5625 0.75 C-7.80066406 0.39421875 -7.03882813 0.0384375 -6.25390625 -0.328125 C-3.72027666 -1.08338373 -2.45814874 -0.87351072 0 0 Z " fill="#64CCF0" transform="translate(615,183)"/>
<path d="M0 0 C0.33 0 0.66 0 1 0 C1.66 5.28 2.32 10.56 3 16 C3.99 16 4.98 16 6 16 C5.34 16.99 4.68 17.98 4 19 C2.68 18.67 1.36 18.34 0 18 C0 12.06 0 6.12 0 0 Z " fill="#81D3F1" transform="translate(532,108)"/>
<path d="M0 0 C0 0.66 0 1.32 0 2 C-0.99 2 -1.98 2 -3 2 C-3 2.66 -3 3.32 -3 4 C-6.63 4.33 -10.26 4.66 -14 5 C-11.81385576 2.81385576 -10.46120051 2.31743465 -7.5625 1.375 C-6.38880859 0.98441406 -6.38880859 0.98441406 -5.19140625 0.5859375 C-3 0 -3 0 0 0 Z " fill="#6CD3F1" transform="translate(629,85)"/>
<path d="M0 0 C0.99 0 1.98 0 3 0 C3 3 3 3 0.75 5.6875 C-2 8 -2 8 -6 8 C-6 7.01 -6 6.02 -6 5 C-4.35 4.67 -2.7 4.34 -1 4 C-0.67 2.68 -0.34 1.36 0 0 Z " fill="#13BBFE" transform="translate(539,294)"/>
<path d="M0 0 C0.33 0 0.66 0 1 0 C1 1.65 1 3.3 1 5 C1.99 5.33 2.98 5.66 4 6 C4 9.3 4 12.6 4 16 C3.67 16 3.34 16 3 16 C2.67 13.03 2.34 10.06 2 7 C1.01 6.67 0.02 6.34 -1 6 C-1.042721 4.33388095 -1.04063832 2.66617115 -1 1 C-0.67 0.67 -0.34 0.34 0 0 Z " fill="#38C0F1" transform="translate(548,263)"/>
<path d="M0 0 C-0.33 0.66 -0.66 1.32 -1 2 C-0.34 2 0.32 2 1 2 C1 2.99 1 3.98 1 5 C-0.65 5 -2.3 5 -4 5 C-3.67 4.01 -3.34 3.02 -3 2 C-3.99 2.33 -4.98 2.66 -6 3 C-6.33 2.01 -6.66 1.02 -7 0 C-3.86650268 -1.04449911 -3.01031744 -0.93423645 0 0 Z " fill="#13BDF7" transform="translate(598,99)"/>
<path d="M0 0 C0.33 0 0.66 0 1 0 C1.18451025 13.6332574 1.18451025 13.6332574 0 20 C-2.29404844 16.55892734 -2.26293056 15.03160191 -2 11 C-1.67 10.67 -1.34 10.34 -1 10 C-0.76712992 8.31816052 -0.58735834 6.6287584 -0.4375 4.9375 C-0.35371094 4.01839844 -0.26992188 3.09929687 -0.18359375 2.15234375 C-0.12300781 1.44207031 -0.06242188 0.73179687 0 0 Z " fill="#4BC1E7" transform="translate(655,189)"/>
<path d="M0 0 C-2.28459758 2.28459758 -4.12537344 2.97129748 -7.125 4.125 C-8.03507813 4.47820312 -8.94515625 4.83140625 -9.8828125 5.1953125 C-10.58148437 5.46085938 -11.28015625 5.72640625 -12 6 C-12 5.01 -12 4.02 -12 3 C-7.77050005 0.58314288 -4.87664009 -0.34833144 0 0 Z " fill="#5EC9F3" transform="translate(576,123)"/>
<path d="M0 0 C-1.15628906 0.39832031 -1.15628906 0.39832031 -2.3359375 0.8046875 C-3.33882812 1.15789062 -4.34171875 1.51109375 -5.375 1.875 C-6.87160156 2.39707031 -6.87160156 2.39707031 -8.3984375 2.9296875 C-11.10442118 3.84782502 -11.10442118 3.84782502 -13 6 C-12.125 1.125 -12.125 1.125 -11 0 C-3.58695652 -1.19565217 -3.58695652 -1.19565217 0 0 Z " fill="#6ED4F6" transform="translate(543,89)"/>
<path d="M0 0 C-4.8643526 3.24290174 -10.04680699 5.55811184 -16 5 C-15.67 4.34 -15.34 3.68 -15 3 C-13.02 3 -11.04 3 -9 3 C-9 2.34 -9 1.68 -9 1 C-6.04335481 -0.4783226 -3.25770263 -0.06032783 0 0 Z " fill="#5AC7EF" transform="translate(634,57)"/>
<path d="M0 0 C0.66 0.33 1.32 0.66 2 1 C-0.36551942 3.73902249 -2.54857221 4.93170092 -6 6 C-8.8125 6.125 -8.8125 6.125 -11 6 C-7.57874946 3.12614955 -4.16111563 1.54115394 0 0 Z " fill="#69CFF3" transform="translate(564,68)"/>
<path d="M0 0 C-4.74963401 3.68096635 -8.00708997 4.58669586 -14 5 C-10.63156097 2.05261585 -4.40469071 -2.20234535 0 0 Z " fill="#80D7F0" transform="translate(581,104)"/>
<path d="M0 0 C-1.62170379 1.00533667 -3.24747237 2.00411907 -4.875 3 C-6.23238281 3.8353125 -6.23238281 3.8353125 -7.6171875 4.6875 C-10 6 -10 6 -12 6 C-12 5.34 -12 4.68 -12 4 C-11.01 4 -10.02 4 -9 4 C-9 3.34 -9 2.68 -9 2 C-5.59159007 -0.55630744 -4.03546861 -1.28479663 0 0 Z " fill="#75D1F2" transform="translate(537,309)"/>
<path d="M0 0 C2 3 2 3 1.5390625 6.13671875 C1.23742187 7.30847656 0.93578125 8.48023438 0.625 9.6875 C0.32851563 10.86699219 0.03203125 12.04648437 -0.2734375 13.26171875 C-0.51320313 14.16535156 -0.75296875 15.06898438 -1 16 C-1.33 16 -1.66 16 -2 16 C-2.2358396 10.22192976 -1.86783046 5.48675196 0 0 Z " fill="#7DD8F2" transform="translate(470,280)"/>
<path d="M0 0 C0.33 0.99 0.66 1.98 1 3 C0.34 3.66 -0.32 4.32 -1 5 C-2.2065625 6.2375 -2.2065625 6.2375 -3.4375 7.5 C-6 10 -6 10 -9 12 C-7.54718935 6.67302761 -3.91888622 3.63597198 0 0 Z " fill="#7DD7F1" transform="translate(597,189)"/>
<path d="M0 0 C-0.66 0 -1.32 0 -2 0 C-2 0.99 -2 1.98 -2 3 C-6.455 3.495 -6.455 3.495 -11 4 C-5.15789474 -1.84210526 -5.15789474 -1.84210526 0 0 Z " fill="#68CFF1" transform="translate(559,114)"/>
<path d="M0 0 C0 0.66 0 1.32 0 2 C-7.28571429 5.42857143 -7.28571429 5.42857143 -12 5 C-8.51164396 2.04831412 -4.66588377 0 0 0 Z " fill="#63CCF1" transform="translate(611,51)"/>
<path d="M0 0 C2.97 0 5.94 0 9 0 C9 0.66 9 1.32 9 2 C7.02 2.33 5.04 2.66 3 3 C3 3.66 3 4.32 3 5 C2.34 5 1.68 5 1 5 C0.67 3.35 0.34 1.7 0 0 Z " fill="#2CB8EA" transform="translate(629,85)"/>
<path d="M0 0 C-0.66 0 -1.32 0 -2 0 C-2 0.99 -2 1.98 -2 3 C-4.97 3 -7.94 3 -11 3 C-4.23255814 -1.51162791 -4.23255814 -1.51162791 0 0 Z " fill="#5DCDF0" transform="translate(551,76)"/>
<path d="M0 0 C0.66 0 1.32 0 2 0 C2 0.66 2 1.32 2 2 C3.32 2.66 4.64 3.32 6 4 C3.64561267 5.42944945 2.51967567 6.08661261 -0.25 5.625 C-0.8275 5.41875 -1.405 5.2125 -2 5 C-1.34 3.35 -0.68 1.7 0 0 Z " fill="#11BCF4" transform="translate(622,100)"/>
<path d="M0 0 C2.31 0 4.62 0 7 0 C6 2 6 2 3.625 3.125 C1 4 1 4 -2 4 C-2 3.34 -2 2.68 -2 2 C-1.34 2 -0.68 2 0 2 C0 1.34 0 0.68 0 0 Z " fill="#6DD1F7" transform="translate(518,315)"/>
<path d="M0 0 C-0.33 0.99 -0.66 1.98 -1 3 C-3.31 3 -5.62 3 -8 3 C-8 2.34 -8 1.68 -8 1 C-3.375 -1.125 -3.375 -1.125 0 0 Z " fill="#878787" transform="translate(415,271)"/>
<path d="M0 0 C2.64 0 5.28 0 8 0 C8.33 0.66 8.66 1.32 9 2 C3.375 3.125 3.375 3.125 0 2 C0 1.34 0 0.68 0 0 Z " fill="#4ECDF4" transform="translate(603,251)"/>
<path d="M0 0 C0.6875 1.8125 0.6875 1.8125 1 4 C-0.3125 5.75 -0.3125 5.75 -2 7 C-2.66 7 -3.32 7 -4 7 C-4 5.35 -4 3.7 -4 2 C-2.68 2 -1.36 2 0 2 C0 1.34 0 0.68 0 0 Z " fill="#15BBFC" transform="translate(654,192)"/>
<path d="M0 0 C-2.85478326 1.90318884 -4.41941308 2.4619099 -7.6875 3.125 C-8.49574219 3.29257813 -9.30398438 3.46015625 -10.13671875 3.6328125 C-10.75160156 3.75398438 -11.36648438 3.87515625 -12 4 C-11.34 3.67 -10.68 3.34 -10 3 C-10 2.34 -10 1.68 -10 1 C-6.52674819 -0.1577506 -3.63932552 -0.06866652 0 0 Z " fill="#7EDCF6" transform="translate(619,108)"/>
<path d="M0 0 C3.45925163 1.2491742 6.14693203 2.67527795 9 5 C6.1875 5.3125 6.1875 5.3125 3 5 C1.125 2.5 1.125 2.5 0 0 Z " fill="#5C5C5C" transform="translate(381,185)"/>
<path d="M0 0 C0.103125 0.639375 0.20625 1.27875 0.3125 1.9375 C0.539375 2.618125 0.76625 3.29875 1 4 C1.99 4.33 2.98 4.66 4 5 C4 6.65 4 8.3 4 10 C3.34 10 2.68 10 2 10 C0.39644899 6.49223216 -0.22036864 3.85645121 0 0 Z " fill="#2EB9ED" transform="translate(582,224)"/>
<path d="M0 0 C2.97 1.98 2.97 1.98 6 4 C5.01 4.66 4.02 5.32 3 6 C1.68 4.68 0.36 3.36 -1 2 C-0.67 1.34 -0.34 0.68 0 0 Z " fill="#6B6B6B" transform="translate(393,192)"/>
<path d="M0 0 C0.99 0 1.98 0 3 0 C2.34 1.98 1.68 3.96 1 6 C-0.32 6 -1.64 6 -3 6 C-3 5.34 -3 4.68 -3 4 C-2.34 4 -1.68 4 -1 4 C-0.67 2.68 -0.34 1.36 0 0 Z " fill="#16BBFC" transform="translate(637,96)"/>
<path d="M0 0 C2.31 0 4.62 0 7 0 C4.73814546 2.26185454 3.03016439 3.03921617 0 4 C-0.99 3.67 -1.98 3.34 -3 3 C-2.34 3 -1.68 3 -1 3 C-0.67 2.01 -0.34 1.02 0 0 Z " fill="#59CAF5" transform="translate(569,77)"/>
<path d="M0 0 C-2.2551922 2.2551922 -4.0047587 2.97723468 -7 4 C-7.99 4 -8.98 4 -10 4 C-10 3.34 -10 2.68 -10 2 C-6.49223216 0.39644899 -3.85645121 -0.22036864 0 0 Z " fill="#7DD8F6" transform="translate(620,62)"/>
<path d="M0 0 C-3.03525486 2.02350324 -4.19426202 2.32124018 -7.6875 2.625 C-8.49574219 2.69976562 -9.30398438 2.77453125 -10.13671875 2.8515625 C-10.75160156 2.90054688 -11.36648438 2.94953125 -12 3 C-4.82142857 -1.78571429 -4.82142857 -1.78571429 0 0 Z " fill="#76D1F0" transform="translate(599,57)"/>
<path d="M0 0 C0.66 1.32 1.32 2.64 2 4 C1.01 5.485 1.01 5.485 0 7 C-0.66 7 -1.32 7 -2 7 C-2.125 4.625 -2.125 4.625 -2 2 C-1.34 1.34 -0.68 0.68 0 0 Z " fill="#33C8F9" transform="translate(538,301)"/>
<path d="M0 0 C0.66 0 1.32 0 2 0 C2.625 1.875 2.625 1.875 3 4 C2.34 4.66 1.68 5.32 1 6 C0.01 6 -0.98 6 -2 6 C-1.34 4.02 -0.68 2.04 0 0 Z " fill="#14C3FE" transform="translate(539,282)"/>
<path d="M0 0 C1.98 0.66 3.96 1.32 6 2 C4.625 3.5 4.625 3.5 3 5 C2.34 5 1.68 5 1 5 C0.67 3.35 0.34 1.7 0 0 Z " fill="#5E5E5E" transform="translate(346,206)"/>
<path d="M0 0 C0.33 0 0.66 0 1 0 C1.22151549 1.79008467 1.42682213 3.58218162 1.625 5.375 C1.74101563 6.37273437 1.85703125 7.37046875 1.9765625 8.3984375 C1.98429688 9.25695312 1.99203125 10.11546875 2 11 C1.34 11.66 0.68 12.32 0 13 C-0.66 12.34 -1.32 11.68 -2 11 C-1.67 10.67 -1.34 10.34 -1 10 C-0.76712992 8.31816052 -0.58735834 6.6287584 -0.4375 4.9375 C-0.35371094 4.01839844 -0.26992188 3.09929687 -0.18359375 2.15234375 C-0.12300781 1.44207031 -0.06242188 0.73179688 0 0 Z " fill="#1ABBF3" transform="translate(531,114)"/>
</svg>
